# xmcd CD database file
#
# Track frame offsets:
#	150
#	13602
#	28812
#	42300
#	57122
#	75167
#	85930
#	99045
#	114065
#	132015
#	149365
#
# Disc length: 2545 seconds
#
# Revision: 3
# Processed by: cddbd v1.5PL3 Copyright (c) Steve Scherf et al.
# Submitted via: CDex 1.51
#
DISCID=7609ef0b
DTITLE=Dwight Yoakam - Under The Covers
DYEAR=1997
DGENRE=Country
TTITLE0=Claudette
TTITLE1=Train In Vain
TTITLE2=Tired Of Waiting For You
TTITLE3=Good Time Charlie's Got The Blues
TTITLE4=Baby Don't Go (With Sheryl Crow)
TTITLE5=Playboy
TTITLE6=Wichita Lineman
TTITLE7=Here Comes The Night
TTITLE8=The Last Time
TTITLE9=Things We Said Today
TTITLE10=North To Alaska  -  .... T For Texas
EXTD=YEAR: 1997
EXTT0=
EXTT1=
EXTT2=
EXTT3=
EXTT4=
EXTT5=
EXTT6=
EXTT7=
EXTT8=
EXTT9=
EXTT10=
PLAYORDER=
